<?xml version="1.0" encoding="UTF-8" standalone="no"?>
<!-- Created with Inkscape (http://www.inkscape.org/) -->

<svg
   width="169.33336mm"
   height="169.33333mm"
   viewBox="0 0 169.33336 169.33333"
   version="1.1"
   id="svg1"
   xml:space="preserve"
   inkscape:version="1.3.2 (091e20ef0f, 2023-11-25, custom)"
   sodipodi:docname="bokbok_the_heron.svg"
   inkscape:export-filename="bokbok_the_heron.png"
   inkscape:export-xdpi="96"
   inkscape:export-ydpi="96"
   xmlns:inkscape="http://www.inkscape.org/namespaces/inkscape"
   xmlns:sodipodi="http://sodipodi.sourceforge.net/DTD/sodipodi-0.dtd"
   xmlns="http://www.w3.org/2000/svg"
   xmlns:svg="http://www.w3.org/2000/svg"><sodipodi:namedview
     id="namedview1"
     pagecolor="#ffffff"
     bordercolor="#000000"
     borderopacity="0.25"
     inkscape:showpageshadow="2"
     inkscape:pageopacity="0.0"
     inkscape:pagecheckerboard="0"
     inkscape:deskcolor="#d1d1d1"
     inkscape:document-units="mm"
     inkscape:zoom="1.04416"
     inkscape:cx="386.91389"
     inkscape:cy="387.39275"
     inkscape:window-width="1920"
     inkscape:window-height="1139"
     inkscape:window-x="0"
     inkscape:window-y="30"
     inkscape:window-maximized="1"
     inkscape:current-layer="g422013" /><defs
     id="defs1" /><g
     inkscape:label="Layer 1"
     inkscape:groupmode="layer"
     id="layer1"
     transform="translate(56.104313,-1.3898801)"><g
       id="g422013"
       transform="matrix(10.000002,0,0,10.000002,-640.66443,-1397.3562)"><path
         style="fill:#464a73;fill-opacity:1"
         d="m 63.98373,151.50167 c 0.06247,-0.0103 0.08245,-0.0202 0.115027,-0.0212 0.03257,-6.7e-4 0.02332,0.0924 0.008,0.13909 -0.01536,0.0471 0.03671,0.12134 -0.0034,0.16103 -0.04013,0.0397 -0.03857,0.10077 -0.07551,0.12557 -0.03695,0.0248 -0.212578,-0.007 -0.287049,0.0253 -0.07447,0.0318 -0.135344,0.0564 -0.182622,0.0738 -0.04728,0.0174 -0.08788,0.0283 -0.121787,0.0326 -0.03391,0.005 -0.07468,-0.002 -0.122311,-0.0188 -0.04763,-0.0169 -0.143343,0.0529 -0.155496,0.026 -0.01215,-0.0269 0.05524,-0.1508 0.07053,-0.1886 0.01527,-0.0378 0.04538,-0.0652 0.09033,-0.0822 0.04495,-0.017 0.07322,-0.07 0.154198,-0.0986 0.08097,-0.0286 0.123979,-0.0785 0.195622,-0.10521 0.07164,-0.0267 0.210165,-0.0914 0.27263,-0.10176"
         id="path422030"
         sodipodi:nodetypes="ccccscsccsssscc" /><path
         style="fill:#464a73;fill-opacity:1"
         d="m 64.156797,150.27757 c 0.04103,-0.0176 0.09708,-0.0955 0.12454,-0.0839 0.02746,0.0114 0.127777,0.10587 0.164597,0.1382 0.03681,0.0323 -0.06488,0.071 -0.125095,0.11146 -0.06023,0.0405 -0.05113,0.10632 -0.08681,0.1342 -0.03569,0.0279 -0.118451,0.0799 -0.177535,0.11068 -0.05908,0.0308 -0.09779,0.0607 -0.127932,0.0704 -0.03014,0.01 -0.112641,0.0449 -0.142981,0.0359 -0.03034,-0.009 -0.148871,-0.10126 -0.155571,-0.13372 -0.0067,-0.0325 0.09791,-0.13187 0.12271,-0.17001 0.0248,-0.0382 0.08553,-0.0368 0.123913,-0.0693 0.03839,-0.0325 0.05307,-0.10723 0.106754,-0.12996 0.05369,-0.0228 0.123798,-0.0291 0.164825,-0.0466"
         id="path422029"
         sodipodi:nodetypes="ccsscsssscccc" /><path
         style="fill:#464a73;fill-opacity:1"
         d="m 63.897985,149.19122 c 0.03315,-0.0237 0.107143,-0.0794 0.135963,-0.10323 0.02883,-0.0238 0.08347,0.0563 0.08038,0.10494 -0.0031,0.0487 -0.106606,0.0924 -0.132719,0.10863 -0.02609,0.0162 -0.02777,0.0896 -0.07505,0.11257 -0.04728,0.023 -0.116319,0.0206 -0.144229,0.0262 -0.02791,0.005 -0.0355,-0.0418 -0.01563,-0.0673 0.01987,-0.0257 0.04108,-0.0487 0.06361,-0.069 0.02253,-0.0202 0.03493,-0.0656 0.06807,-0.0893"
         id="path422028"
         sodipodi:nodetypes="csssscccc" /><path
         style="fill:#464a73;fill-opacity:1"
         d="m 65.758603,148.9658 c 0.01705,-0.0239 0.04097,-0.042 0.07176,-0.0543 0.03079,-0.0123 0.04753,0.0159 0.05021,0.0847 0.0027,0.0687 0.0016,0.11846 -0.0032,0.14915 -0.0048,0.0307 -0.01433,0.0666 -0.0286,0.10771 -0.01427,0.0411 -0.03559,0.0898 -0.06394,0.14591 -0.02835,0.0561 -0.0635,0.12593 -0.105447,0.20939 -0.04194,0.0834 -0.07919,0.14164 -0.111751,0.17462 -0.03256,0.033 -0.06689,0.0615 -0.102993,0.0854 -0.03611,0.024 -0.08426,0.0589 -0.144458,0.10474 -0.0602,0.0459 -0.0626,0.0734 -0.0827,0.0553 -0.02011,-0.0181 -0.07376,-0.0595 -0.08546,-0.0968 -0.0117,-0.0373 -0.0085,-0.0744 0.0096,-0.11149 0.01807,-0.0371 0.04349,-0.0803 0.07624,-0.12957 0.03275,-0.0493 0.0652,-0.0989 0.09735,-0.14871 0.03215,-0.0498 0.0382,-0.14472 0.08613,-0.20496 0.04793,-0.0602 0.09537,-0.11536 0.135468,-0.16736 0.04009,-0.052 0.05153,-0.10653 0.08004,-0.14949 0.02851,-0.043 0.104721,-0.0304 0.121768,-0.0543"
         id="path422027"
         sodipodi:nodetypes="csssssssccssssssssc" /><path
         style="fill:#464a73;fill-opacity:1"
         d="m 65.262572,147.34566 c 0.03512,-0.0431 0.07496,-0.0597 0.119514,-0.0499 0.04455,0.01 0.06468,0.053 0.06037,0.12946 -0.0043,0.0765 -0.0073,0.12921 -0.0089,0.1581 -0.0016,0.0289 -0.01371,0.081 -0.03632,0.15638 -0.02262,0.0754 -0.04944,0.13723 -0.08045,0.18559 -0.03101,0.0483 -0.06842,0.0845 -0.112236,0.10852 -0.04381,0.024 -0.102009,0.0486 -0.174588,0.0738 -0.07258,0.0252 -0.145144,0.0807 -0.210562,0.0819 -0.06542,10e-4 -0.119525,0.005 -0.168204,0.0216 -0.04868,0.0164 -0.07492,-0.0402 -0.07996,-0.0948 -0.0051,-0.0545 0.02248,-0.096 0.08265,-0.12433 0.06015,-0.0283 0.108389,-0.0595 0.144727,-0.0935 0.03634,-0.034 0.07958,-0.0734 0.129726,-0.11808 0.05015,-0.0447 0.09089,-0.093 0.122224,-0.14474 0.03134,-0.0518 0.06572,-0.10231 0.103146,-0.15153 0.03743,-0.0493 0.0737,-0.0954 0.10882,-0.13841"
         id="path422026"
         sodipodi:nodetypes="cssssssscccsssssc" /><path
         style="fill:#464a73;fill-opacity:1"
         d="m 66.84036,147.10432 c 0.01678,-0.0373 0.03349,-0.0468 0.05014,-0.0283 0.01665,0.0184 0.07878,0.0242 0.107886,0.063 0.02911,0.0387 0.0624,0.15783 0.02351,0.2356 -0.03703,0.074 -0.05907,0.12466 -0.07879,0.19052 -0.01972,0.0659 -0.02936,0.13633 -0.04973,0.16705 -0.02037,0.0307 -0.05044,0.0619 -0.09169,0.10687 -0.04125,0.0449 -0.09171,0.0691 -0.129112,0.10335 -0.0374,0.0343 -0.0772,0.0634 -0.119397,0.0873 -0.04219,0.0239 -0.09462,0.0448 -0.157283,0.0629 -0.06266,0.0181 -0.22025,0.0827 -0.249935,0.0625 -0.02969,-0.0201 0.06694,-0.11195 0.06705,-0.14455 1.07e-4,-0.0326 0.008,-0.0595 0.02354,-0.0806 0.01559,-0.0211 0.04118,-0.0525 0.07677,-0.0942 0.03559,-0.0417 0.04644,-0.0995 0.07718,-0.13755 0.03074,-0.038 0.09524,-0.0726 0.148859,-0.13979 0.05362,-0.0672 0.09026,-0.11469 0.109917,-0.14244 0.01966,-0.0277 0.05223,-0.0772 0.09772,-0.14856 0.04549,-0.0713 0.07662,-0.1256 0.0934,-0.16292"
         id="path422025"
         sodipodi:nodetypes="ccsssssccsssssssssc" /><path
         style="fill:#464a73;fill-opacity:1"
         d="m 66.562261,146.00211 c 0.02165,-0.0159 0.03271,-0.0296 0.05271,-0.036 0.02001,-0.007 0.06114,-9.2e-4 0.05938,0.0133 -0.0017,0.0139 -0.0052,0.0851 -0.03776,0.13166 -0.0325,0.0465 -0.08699,0.10139 -0.132068,0.1456 -0.04507,0.0442 -0.0855,0.0918 -0.128401,0.13745 -0.0429,0.0457 -0.07155,0.091 -0.103536,0.12015 -0.03199,0.0291 -0.133842,0.0779 -0.149728,0.0805 -0.01589,0.003 -0.01999,-0.0993 -0.01332,-0.11053 0.0067,-0.0113 0.0426,-0.0462 0.07583,-0.098 0.03323,-0.0517 0.06101,-0.11447 0.111285,-0.17 0.05028,-0.0555 0.08829,-0.0854 0.126575,-0.12675 0.03829,-0.0413 0.10495,-0.0694 0.126597,-0.0854"
         id="path422024"
         sodipodi:nodetypes="ccssssssssscc" /><path
         style="fill:#546799;fill-opacity:1"
         d="m 66.056313,145.43422 c 0.05524,-0.0407 0.08808,-0.0947 0.164875,-0.11823 0.0768,-0.0235 0.182794,0.0846 0.244565,0.0684 0.06177,-0.0162 0.13623,-0.0142 0.223369,0.006 0.08714,0.02 0.14016,-0.0901 0.176742,-0.072 0.03658,0.0181 0.119383,0.062 0.182763,0.10113 0.06338,0.0391 0.09988,0.0573 0.126765,0.0712 0.02689,0.014 0.112464,0.11396 0.188994,0.16546 0.07653,0.0515 0.08814,0.1468 0.133272,0.1757 0.04513,0.0289 0.0998,0.0662 0.163989,0.11211 0.06419,0.0459 0.113583,0.0824 0.148169,0.10965 0.03459,0.0272 0.07846,0.0626 0.131616,0.10606 0.05315,0.0435 0.102667,0.0866 0.148542,0.12955 0.04587,0.0429 0.07696,0.0854 0.09325,0.12759 0.01629,0.0422 0.11416,0.0552 0.13529,0.12196 0.02113,0.0668 0.05066,0.15578 0.07609,0.23611 0.02543,0.0803 -0.0472,0.18428 -0.0471,0.25977 9.7e-5,0.0755 -0.0035,0.14816 -0.0107,0.21803 -0.0072,0.0699 0.03891,0.17868 0.0077,0.2584 -0.03123,0.0797 -0.0716,0.12081 -0.08862,0.15529 -0.01702,0.0345 -0.02532,0.0919 -0.06667,0.15257 -0.04135,0.0607 -0.06296,0.12075 -0.09183,0.1547 -0.02887,0.0339 -0.09133,0.085 -0.137131,0.14192 -0.0458,0.0569 -0.09066,0.088 -0.122971,0.14118 -0.03231,0.0532 -0.07974,0.11295 -0.124042,0.18148 -0.0443,0.0685 -0.07421,0.13396 -0.1059,0.18133 -0.03169,0.0473 -0.08047,0.0926 -0.126558,0.15324 -0.0461,0.0606 -0.04636,0.11928 -0.08566,0.17293 -0.03933,0.0537 -0.07142,0.11352 -0.08847,0.14048 -0.01705,0.027 -0.08331,0.0714 -0.136522,0.15682 -0.0532,0.0854 -0.07742,0.14187 -0.09625,0.17057 -0.01882,0.0287 -0.0307,0.0738 -0.06719,0.12075 -0.03649,0.0469 -0.06884,0.11839 -0.10868,0.16795 -0.03984,0.0495 -0.115404,0.11477 -0.170097,0.17973 -0.05469,0.065 -0.158044,0.0522 -0.201765,0.0962 -0.04372,0.044 -0.08337,0.0843 -0.118944,0.12087 -0.03558,0.0366 -0.07542,0.0769 -0.119513,0.12103 l -0.132292,0.13229 -0.06866,0.15486 c -0.02528,0.057 -0.07172,0.11642 -0.108156,0.15749 -0.03644,0.0411 -0.07879,0.0519 -0.109758,0.095 -0.03097,0.0431 -0.1307,0.0744 -0.16394,0.13545 -0.03325,0.0611 -0.06389,0.12176 -0.09194,0.18187 -0.02805,0.0601 -0.06068,0.13127 -0.09789,0.2134 -0.03721,0.0821 -0.06862,0.13793 -0.09421,0.16736 -0.02559,0.0294 0.0046,0.10103 -0.06072,0.15973 -0.06536,0.0587 -0.07911,0.11223 -0.114956,0.14192 -0.03585,0.0297 -0.1053,0.13153 -0.165402,0.17667 -0.0601,0.0451 -0.205127,-0.0178 -0.252912,0.0141 -0.04778,0.0319 -0.08894,0.0575 -0.123483,0.0766 -0.03454,0.0191 -0.09347,0.0539 -0.176799,0.10425 -0.08333,0.0503 -0.146137,0.0857 -0.188428,0.10622 -0.04229,0.0205 -0.04966,0.0827 -0.119927,0.11324 -0.07027,0.0305 -0.130311,0.0561 -0.188455,0.0794 -0.05815,0.0233 -0.138123,0.0612 -0.222872,0.0917 -0.08475,0.0306 -0.175256,0.0499 -0.237377,0.0744 -0.06212,0.0244 -0.0939,0.0565 -0.146687,0.0773 -0.05279,0.0208 -0.134156,0.0294 -0.198439,0.0587 -0.06428,0.0293 -0.105193,0.0636 -0.158919,0.087 -0.05373,0.0234 -0.127068,0.0647 -0.171743,0.0819 -0.04468,0.0171 -0.100392,0.0238 -0.179375,0.0467 -0.07898,0.0229 -0.170523,0.0202 -0.245753,0.0103 -0.07523,-0.01 -0.161989,-0.0572 -0.22836,-0.0673 -0.06637,-0.0101 -0.09651,-0.0488 -0.09041,-0.11627 0.0061,-0.0674 -0.04303,-0.15953 -0.03722,-0.2366 0.0058,-0.0771 0.01974,-0.11801 0.02511,-0.16252 0.0054,-0.0445 0.01151,-0.10027 0.01858,-0.15542 0.0071,-0.0551 0.01519,-0.11437 0.03016,-0.18354 0.01497,-0.0692 0.07617,-0.13709 0.08419,-0.20981 0.008,-0.0727 -0.01373,-0.16125 0.0022,-0.25236 0.01591,-0.0911 -0.01295,-0.20529 0.0067,-0.29364 0.01971,-0.0883 -0.0013,-0.10094 0.01741,-0.15381 0.0187,-0.0529 0.0077,-4.4e-4 0.08355,-0.23761 0.02148,-0.0672 0.03861,-0.17354 0.06,-0.25333 0.02138,-0.0798 0.08162,-0.10676 0.106073,-0.17242 0.02445,-0.0657 0.02189,-0.13836 0.04219,-0.20741 0.0203,-0.0691 0.04833,-0.12269 0.06944,-0.18263 0.02111,-0.0599 0.06781,-0.12879 0.09212,-0.20127 0.02431,-0.0725 0.098,-0.12957 0.119266,-0.1964 0.02127,-0.0668 0.03875,-0.11716 0.05244,-0.15097 0.0137,-0.0338 -7e-6,-0.1056 0.03848,-0.19531 0.03849,-0.0897 0.05237,-0.19457 0.079,-0.25586 0.02663,-0.0613 0.07263,-0.11423 0.09775,-0.17534 0.02512,-0.0611 0.08837,-0.0889 0.113031,-0.14602 0.02466,-0.0571 0.04761,-0.10957 0.06886,-0.1573 0.02125,-0.0477 0.04285,-0.0944 0.0648,-0.14009 0.02195,-0.0457 0.05015,-0.10332 0.08458,-0.17297 0.03443,-0.0697 0.07098,-0.13652 0.109635,-0.20055 0.03866,-0.064 0.01138,-0.1597 0.05979,-0.22945 0.04841,-0.0697 0.09983,-0.15988 0.131315,-0.20599 0.03149,-0.0461 0.08047,-0.0947 0.117565,-0.1367 0.0371,-0.042 0.09059,-0.0572 0.121614,-0.0925 0.03103,-0.0353 0.0979,-0.0377 0.150211,-0.0919 0.05231,-0.0541 0.100508,-0.10325 0.144604,-0.14735 l 0.132292,-0.13229 0.132291,-0.13229 0.132292,-0.13229 c 0.0441,-0.0441 0.0882,-0.0882 0.132292,-0.1323 0.04409,-0.0441 0.08819,-0.0882 0.132291,-0.13229 l 0.132292,-0.13229 0.132292,-0.13229 0.132291,-0.13229 0.132292,-0.13229 c 0.0441,-0.0441 0.03596,-0.17344 0.07982,-0.21006 0.04387,-0.0366 0.09448,-0.0368 0.141552,-0.0759 0.04708,-0.0391 0.0045,-0.0885 0.05257,-0.11921 0.04803,-0.0307 0.131748,-0.10093 0.18698,-0.14166 m -2.748554,6.51786 c -0.0094,0.0291 -0.0053,0.0466 0.01237,0.0527 0.01765,0.006 0.06206,0.004 0.133246,-0.005 0.07119,-0.01 0.137806,-0.0211 0.199859,-0.0347 0.06205,-0.0136 0.133113,-0.0311 0.21318,-0.0525 0.08007,-0.0214 0.142792,-0.0404 0.188177,-0.0571 0.04539,-0.0167 0.07331,-0.0569 0.08378,-0.12068 0.01047,-0.0638 0.01713,-0.12066 0.01999,-0.17058 0.0029,-0.0499 -0.017,-0.0682 -0.05961,-0.0549 -0.0426,0.0133 -0.08324,0.0266 -0.121925,0.0397 -0.03869,0.0131 -0.09066,0.0305 -0.155907,0.0521 -0.06525,0.0215 -0.126856,0.0474 -0.184807,0.0777 -0.05795,0.0302 -0.112117,0.0613 -0.162491,0.0934 -0.05037,0.0321 -0.08826,0.0628 -0.113663,0.0922 -0.0254,0.0294 -0.0428,0.0586 -0.0522,0.0877 m 0.496699,-1.29335 c -0.0079,0.0487 0.01321,0.0699 0.06333,0.0635 0.05012,-0.007 0.102553,-0.0152 0.1573,-0.0255 0.05475,-0.0106 0.105901,-0.0325 0.153443,-0.0657 0.04755,-0.0332 0.08634,-0.061 0.11638,-0.0835 0.03004,-0.0225 0.05633,-0.0549 0.07888,-0.0972 0.02255,-0.0424 0.05055,-0.0875 0.08401,-0.13522 0.03346,-0.0477 0.02137,-0.0688 -0.03627,-0.0631 -0.05765,0.006 -0.107431,0.0117 -0.149354,0.017 -0.04193,0.005 -0.104927,0.0327 -0.189002,0.082 -0.08408,0.0491 -0.139079,0.0878 -0.165008,0.11612 -0.02593,0.0284 -0.04939,0.0553 -0.07038,0.0806 -0.02099,0.0254 -0.03543,0.0624 -0.04333,0.11115 m 0.08108,-1.26213 c -0.006,0.0201 0.009,0.0184 0.04511,-0.005 0.03611,-0.0237 0.06147,-0.0428 0.0761,-0.0575 0.01463,-0.0147 0.03095,-0.0344 0.04898,-0.0591 0.01803,-0.0247 0.04665,-0.0579 0.08588,-0.0996 0.03923,-0.0417 0.03719,-0.054 -0.0061,-0.037 -0.04329,0.017 -0.0882,0.0432 -0.134715,0.0786 -0.04651,0.0354 -0.07584,0.0692 -0.08799,0.10147 -0.01214,0.0322 -0.02123,0.0584 -0.02726,0.0785 m 2.345464,-2.86045 c -0.02141,0.0331 -0.01682,0.0426 0.01377,0.0287 0.03059,-0.0139 0.07335,-0.044 0.12828,-0.0902 0.05493,-0.0462 0.09403,-0.086 0.117304,-0.11933 0.02327,-0.0334 0.05765,-0.076 0.103126,-0.12767 0.04548,-0.0517 0.08651,-0.0972 0.123075,-0.13649 0.03657,-0.0393 0.05465,-0.0658 0.05425,-0.0796 -4.06e-4,-0.0138 -0.01025,-0.023 -0.02954,-0.0277 -0.01929,-0.005 -0.04633,0.007 -0.08112,0.034 -0.03479,0.0273 -0.06686,0.0557 -0.09621,0.0851 -0.02934,0.0294 -0.07349,0.0751 -0.13246,0.13711 -0.05897,0.062 -0.101769,0.11859 -0.128408,0.16977 -0.02664,0.0512 -0.05066,0.0933 -0.07207,0.12639 m -1.32399,1.62478 c 0.08317,-0.0125 0.153078,-0.0329 0.209714,-0.0614 0.05663,-0.0285 0.108058,-0.06 0.154274,-0.0945 0.04621,-0.0345 0.08987,-0.0787 0.130957,-0.13281 0.04109,-0.0541 0.06552,-0.10122 0.07327,-0.14145 0.0078,-0.0403 0.0129,-0.10168 0.01543,-0.18424 0.0025,-0.0826 0.0011,-0.14606 -0.0042,-0.19043 -0.0053,-0.0444 -0.01906,-0.052 -0.04118,-0.0229 -0.02212,0.0291 -0.04621,0.0601 -0.07228,0.0931 -0.02606,0.033 -0.0575,0.0728 -0.09433,0.11952 -0.03683,0.0467 -0.07423,0.0902 -0.112223,0.13048 -0.03799,0.0403 -0.07491,0.0744 -0.110758,0.10235 -0.03585,0.0279 -0.07972,0.0632 -0.131624,0.1059 -0.0519,0.0427 -0.09858,0.0806 -0.14004,0.11393 -0.04146,0.0333 -0.06847,0.0695 -0.08103,0.10844 -0.01256,0.039 -0.0025,0.0609 0.0302,0.0656 0.03269,0.005 0.09063,8.3e-4 0.173804,-0.0115 m 0.523005,2.68183 -0.09922,0.0331 0.09922,-0.0331 c 0.06615,-0.0221 0.06615,-0.0221 0,0 m 0.876765,-2.70138 c 0.02159,-0.005 0.06434,-0.0237 0.128249,-0.057 0.06391,-0.0333 0.118454,-0.0622 0.163622,-0.0869 0.04517,-0.0247 0.09373,-0.0524 0.145683,-0.0832 0.05195,-0.0308 0.10228,-0.0635 0.150981,-0.0981 0.0487,-0.0346 0.07943,-0.068 0.0922,-0.10007 0.01277,-0.0321 0.02996,-0.0785 0.05157,-0.13907 0.02161,-0.0606 0.04201,-0.12916 0.06118,-0.20568 0.01917,-0.0765 0.01942,-0.14133 7.29e-4,-0.19446 -0.01869,-0.0531 -0.04035,-0.0796 -0.06496,-0.0795 -0.02461,10e-5 -0.04476,0.0111 -0.06043,0.0329 -0.01567,0.0218 -0.05087,0.067 -0.105588,0.13556 -0.05472,0.0686 -0.09932,0.12448 -0.133804,0.16773 -0.03449,0.0433 -0.07069,0.0876 -0.108606,0.13301 -0.03792,0.0454 -0.07542,0.0891 -0.112497,0.13097 -0.03708,0.0419 -0.07109,0.0898 -0.102039,0.14376 -0.03095,0.0539 -0.06057,0.10507 -0.08886,0.1534 -0.02829,0.0483 -0.04367,0.0861 -0.04613,0.11317 -0.0025,0.0271 0.0071,0.0383 0.02869,0.0336 m -0.990639,1.85196 c 0.02141,0.005 0.03121,0.002 0.08226,-0.0205 0.05105,-0.0233 0.06809,-0.0582 0.105787,-0.0866 0.0377,-0.0284 0.08392,-0.0539 0.128913,-0.0915 0.04499,-0.0376 0.0644,-0.082 0.09696,-0.13873 0.03257,-0.0567 0.06244,-0.13117 0.09836,-0.19341 0.03592,-0.0623 0.07491,-0.10814 0.08934,-0.16499 0.01443,-0.0569 0.02914,-0.1079 0.04146,-0.17176 0.01232,-0.0639 0.0073,-0.0965 0.01709,-0.11589 0.0098,-0.0193 -0.0086,-0.0809 -0.03571,-0.0776 -0.02713,0.003 -0.01663,0.048 -0.08214,0.0635 -0.06551,0.0154 -0.106793,0.042 -0.123859,0.0799 -0.01707,0.0378 -0.04173,0.0825 -0.074,0.13404 -0.03227,0.0515 -0.0707,0.10822 -0.115295,0.17005 -0.04459,0.0618 -0.07114,0.12519 -0.105222,0.17067 -0.03408,0.0455 -0.05718,0.0911 -0.08863,0.13841 -0.03145,0.0473 -0.07699,0.0961 -0.09172,0.16466 -0.01473,0.0685 0.0092,0.0947 0.01589,0.10703 0.0067,0.0123 -0.02264,-0.0188 0.03287,0.0248"
         id="path422023"
         sodipodi:nodetypes="cssccscsssscssssssssssssssssssscssssscssssssssccsscssscsscscssscsssssssssssssssssssssssssssssssssscccsssssccccsssssssccssccccsscscsccccccssssssccsssssssssssccscsssscscssscsccccscccssssssscsssscssscccssssssssccssssssc" /><path
         style="fill:#e6cca1;fill-opacity:1"
         d="m 69.731383,144.93227 -0.0041,-0.13643 h 0.132292 q 0.132291,0 0.264583,0 0.132292,0 0.264583,0 0.132292,0 0.264584,0 0.132291,0 0.264583,0 0.132292,0 0.264583,0 0.132292,0 0.264584,0 0.132291,0 0.264583,0 0.132292,0 0.264583,0 0.132292,0 0.24941,-0.003 0.117118,-0.003 0.264022,-0.004 0.146904,-0.001 0.27631,-0.005 0.129406,-0.004 0.277547,-0.008 l 0.148141,-0.004 -0.02067,-0.0124 -0.02067,-0.0124 0.04609,0.0109 q 0.04609,0.0109 0.107487,0.0248 l 0.0614,0.0139 h -0.09922 -0.09922 l 0.119656,0.01 q 0.119657,0.01 0.272981,0.0287 0.153324,0.0189 0.189834,0.0534 0.03651,0.0345 0.05189,0.1 0.01538,0.0654 -0.08185,0.0637 -0.09723,-0.002 -0.205409,-0.005 -0.108185,-0.003 -0.253611,4e-4 -0.145426,0.004 -0.25808,0.006 -0.112655,0.002 -0.238617,0.005 -0.125961,0.003 -0.258253,0.003 -0.132292,0 -0.264583,0 -0.132292,0 -0.264584,0 -0.132291,0 -0.264583,0 -0.132292,0 -0.264583,0 -0.132292,0 -0.264584,0 -0.132291,0 -0.264583,0 -0.132292,0 -0.264583,0 -0.132292,0 -0.264584,0 -0.132291,0 -0.264583,0 -0.132292,0 -0.264583,0 h -0.132292 0.09922 0.09922 l -0.05279,0.002 q -0.05279,0.002 -0.124023,0.008 l -0.07123,0.006 0.02894,-0.004 0.02894,-0.004 -0.0041,-0.13642 m -0.0041,-0.1695 v 0.0331 0.0992 0.0992 -0.0661 q 0,-0.0661 0,-0.13229 v -0.0661 0.0331"
         id="path422022" /><path
         style="fill:#cbdbfc;fill-opacity:1"
         d="m 67.164073,144.87752 -0.08266,-0.0817 0.05183,0.0567 q 0.05183,0.0567 0.124024,0.14056 l 0.07219,0.0839 0.01654,0.0165 0.01654,0.0165 -0.05172,-0.0294 q -0.05172,-0.0294 -0.08268,-0.0496 l -0.03097,-0.0202 0.07441,0.0248 0.07441,0.0248 -0.04963,-0.0506 q -0.04963,-0.0506 -0.132292,-0.13229"
         id="path422021" /><path
         style="fill:#f0ebc0;fill-opacity:1"
         d="m 69.985356,144.17457 q 0.09776,-0.0343 0.159479,-0.0444 0.06172,-0.0101 0.231744,-0.0292 0.170023,-0.0191 0.287239,-0.0107 0.117215,0.008 0.218122,0.0272 0.100906,0.0188 0.142735,0.0254 0.04183,0.007 0.158121,0.0277 0.116291,0.0212 0.255649,0.0524 0.139359,0.0313 0.257661,0.0629 0.118303,0.0316 0.213241,0.0551 0.09494,0.0235 0.178865,0.049 0.08393,0.0255 0.191362,0.0448 0.107435,0.0193 0.232638,0.0482 0.125203,0.0289 0.222725,0.058 0.09752,0.0291 0.205191,0.0944 0.107669,0.0653 0.167187,0.11294 l 0.05952,0.0477 -0.0248,-0.0744 -0.02481,-0.0744 0.01648,0.0173 q 0.01648,0.0173 0.05788,0.0744 l 0.0414,0.0571 -0.02067,-0.0124 -0.02067,-0.0124 -0.137171,0.003 q -0.137171,0.003 -0.259274,0.008 -0.122102,0.006 -0.273204,0.007 -0.151102,0.001 -0.28416,0.003 -0.133058,0.002 -0.263485,0.003 -0.130427,7.5e-4 -0.262719,7.5e-4 -0.132292,0 -0.264583,0 -0.132292,0 -0.264584,0 -0.132291,0 -0.264583,0 -0.132292,0 -0.264583,0 -0.132292,0 -0.264584,0 -0.132291,0 -0.264583,0 -0.132292,0 -0.264583,0 h -0.132292 l 0.0066,-0.11452 q 0.0066,-0.11452 0.01654,-0.28112 l 0.0099,-0.1666 -0.01654,-0.0165 -0.01654,-0.0165 0.03208,0.0138 q 0.03208,0.0138 0.09922,0.0331 l 0.06714,0.0193 h -0.09922 -0.09922 l 0.08017,-0.0289 q 0.08017,-0.0289 0.177933,-0.0632 m -0.258107,0.52205 v 0.0992 0.0331 0.0331 -0.0661 q 0,-0.0661 0,-0.13229 v -0.0661 0.0992"
         id="path422020" /><path
         style="fill:#ffffff;fill-opacity:1"
         d="m 68.311478,143.69207 q 0.02047,-0.10344 0.04882,-0.0887 0.02834,0.0148 0.09199,0.0346 0.06365,0.0198 0.06921,0.0945 0.0056,0.0747 -0.01453,0.13493 -0.02008,0.0602 -0.04146,0.0489 -0.02138,-0.0113 -0.10548,-0.0129 -0.0841,-0.002 -0.07656,-0.0547 0.0075,-0.0532 0.02801,-0.15662"
         id="path422019" /><path
         style="fill:#1a1a1a;fill-opacity:1"
         d="m 67.950205,143.12508 q 0.06549,-0.0604 0.110791,-0.0769 0.0453,-0.0165 0.170321,-0.0372 0.125019,-0.0207 0.210842,0.0296 0.08582,0.0502 0.172339,0.10329 0.08652,0.0531 0.115958,0.12366 0.02944,0.0706 0.06914,0.18849 0.0397,0.11789 0.0253,0.19824 -0.0144,0.0804 -0.04957,0.17842 -0.03517,0.0981 -0.09146,0.15458 -0.05629,0.0565 -0.10448,0.0987 -0.04819,0.0421 -0.116899,0.097 -0.06871,0.0549 -0.182669,0.0524 -0.113957,-0.002 -0.1945,-0.0541 -0.08054,-0.0517 -0.148257,-0.0966 -0.06772,-0.045 -0.122047,-0.12038 -0.05433,-0.0754 -0.08228,-0.18788 -0.02795,-0.11244 -0.0256,-0.20722 0.0023,-0.0948 0.01413,-0.15789 0.01178,-0.0631 0.08762,-0.14434 0.07584,-0.0812 0.141331,-0.14165 m 0.345528,0.8294 q 0.07246,0.0329 0.15055,-0.03 0.07809,-0.0629 0.09929,-0.12555 0.0212,-0.0627 -0.03078,-0.13245 -0.05198,-0.0698 -0.108989,-0.0703 -0.05701,-5.5e-4 -0.07371,0.02 -0.01671,0.0206 -0.06999,0.084 -0.05329,0.0635 -0.04605,0.14239 0.0072,0.0789 0.07969,0.11182"
         id="path422018" /><path
         style="fill:#f5f5f5;fill-opacity:1"
         d="m 67.898483,142.61435 q 0.06783,-0.0328 0.170374,-0.0661 0.102541,-0.0333 0.21635,-0.0584 0.11381,-0.0251 0.261162,-0.0626 l 0.147351,-0.0375 -0.02067,-0.0124 -0.02067,-0.0124 0.04186,0.0123 q 0.04186,0.0123 0.107487,0.0248 l 0.06563,0.0125 h -0.09922 -0.09922 l 0.140554,0.0478 q 0.140555,0.0478 0.244323,0.10905 0.103768,0.0613 0.151812,0.0917 0.04804,0.0305 0.08916,0.0814 0.04112,0.0509 0.09716,0.13373 0.05604,0.0828 0.09088,0.15069 0.03484,0.0679 0.0892,0.17062 0.05436,0.10276 0.06479,0.17176 0.01043,0.069 0.02655,0.22857 0.01611,0.15959 0.02908,0.2901 0.01297,0.13052 0.0239,0.25361 l 0.01093,0.1231 v -0.0992 -0.0992 l 0.021,0.06 q 0.021,0.06 0.03307,0.0992 l 0.01207,0.0393 -0.01654,-0.0165 -0.01654,-0.0165 -0.0105,0.16481 q -0.0105,0.16482 -0.01365,0.2762 -0.0031,0.11139 -0.0019,0.25273 l 0.0012,0.14135 0.02894,-0.004 0.02894,-0.004 -0.06715,0.012 q -0.06715,0.012 -0.107487,0.0248 l -0.04034,0.0128 0.07441,-0.0248 0.07441,-0.0248 -0.104835,0.0572 q -0.104835,0.0572 -0.156546,0.0817 -0.05171,0.0245 -0.179167,0.0839 -0.127455,0.0594 -0.191134,0.11071 -0.06368,0.0513 -0.06987,0.12223 -0.0062,0.0709 0.004,0.18629 0.01023,0.11534 0.0445,0.19088 0.03427,0.0755 0.06853,0.15608 0.03426,0.0805 0.06853,0.16029 0.03427,0.0798 0.06038,0.16423 0.02611,0.0845 0.06709,0.21567 0.04098,0.13119 0.05378,0.24299 0.0128,0.1118 0.02512,0.23586 0.01232,0.12406 0.01944,0.23776 0.0071,0.1137 0.01416,0.24879 0.007,0.13509 0.0089,0.27796 0.0019,0.14288 -0.01233,0.27936 -0.0142,0.13647 -0.03767,0.24651 -0.02347,0.11003 -0.06028,0.20335 -0.03681,0.0933 -0.06586,0.1688 -0.02905,0.0755 -0.06112,0.1394 -0.03206,0.0639 -0.09567,0.16935 -0.06361,0.10542 -0.10762,0.17328 -0.04401,0.0679 -0.121372,0.17928 -0.07736,0.11142 -0.120285,0.17181 -0.04293,0.0604 -0.109072,0.12654 -0.06615,0.0661 -0.132292,0.13229 -0.06615,0.0661 -0.132292,0.13229 -0.06614,0.0661 -0.132291,0.1323 -0.06615,0.0661 -0.132292,0.13229 -0.06615,0.0661 -0.132292,0.13229 -0.06615,0.0661 -0.119945,0.11835 -0.0538,0.0522 -0.133347,0.12331 -0.07955,0.0711 -0.152855,0.13213 -0.07331,0.061 -0.19734,0.13147 -0.124033,0.0704 -0.189359,0.11848 -0.06533,0.048 -0.112967,0.0805 -0.04764,0.0325 -0.148924,0.10303 -0.101282,0.0705 -0.162738,0.10434 -0.06146,0.0338 -0.154443,0.0503 -0.09299,0.0165 -0.215439,0.0277 -0.122452,0.0112 -0.239693,-0.014 -0.117241,-0.0252 -0.179721,-0.0631 -0.06248,-0.0379 -0.09824,-0.0611 -0.03575,-0.0231 0.01238,-0.0713 0.04814,-0.0482 0.103164,-0.10222 0.05503,-0.054 0.117134,-0.12135 0.06211,-0.0674 0.144391,-0.15007 0.08229,-0.0827 0.144434,-0.14535 0.06215,-0.0626 0.128294,-0.12876 0.06615,-0.0661 0.132292,-0.13229 0.06615,-0.0661 0.132292,-0.13229 0.06614,-0.0661 0.137977,-0.14058 0.07183,-0.0744 0.110561,-0.12124 0.03873,-0.0468 0.106927,-0.15028 0.0682,-0.10346 0.121969,-0.17532 0.05377,-0.0719 0.109721,-0.15536 0.05595,-0.0835 0.121112,-0.18097 0.06516,-0.0975 0.08641,-0.14261 0.02124,-0.0451 0.09006,-0.15595 0.06882,-0.11082 0.126052,-0.1966 0.05723,-0.0858 0.09137,-0.13913 0.03413,-0.0533 0.104913,-0.14002 0.07078,-0.0867 0.126386,-0.15342 0.0556,-0.0668 0.100676,-0.12537 0.04507,-0.0586 0.106372,-0.13721 0.0613,-0.0786 0.127261,-0.17274 0.06596,-0.0942 0.09043,-0.16679 0.02447,-0.0726 0.03642,-0.17554 0.01195,-0.1029 0.02665,-0.25541 0.0147,-0.1525 0.01967,-0.27218 0.005,-0.11967 -0.0083,-0.26749 -0.01328,-0.14781 -0.02846,-0.26056 -0.01518,-0.11276 -0.04804,-0.20852 -0.03286,-0.0958 -0.06747,-0.14625 -0.03461,-0.0505 -0.101658,-0.11165 -0.06705,-0.0612 -0.148023,-0.11507 -0.08097,-0.0539 -0.184339,-0.12479 -0.103364,-0.0709 -0.170653,-0.13217 -0.06729,-0.0613 -0.13971,-0.12433 -0.07242,-0.063 -0.129327,-0.11895 -0.05691,-0.0559 -0.08844,-0.10253 -0.03154,-0.0466 -0.114436,-0.16848 l -0.0829,-0.12187 0.02481,0.0744 0.0248,0.0744 -0.03169,-0.0541 q -0.03169,-0.0541 -0.04961,-0.0827 l -0.01792,-0.0286 0.01654,0.0165 0.01654,0.0165 -0.05251,-0.0654 q -0.05251,-0.0653 -0.124024,-0.14056 l -0.07151,-0.0752 -0.02881,-0.13722 q -0.02881,-0.13723 -0.05087,-0.21146 -0.02206,-0.0742 -0.04458,-0.16391 -0.02252,-0.0897 -0.04287,-0.19233 -0.02035,-0.10265 -0.0073,-0.22632 0.01309,-0.12366 0.03695,-0.22733 0.02386,-0.10367 0.05462,-0.17665 0.03076,-0.073 0.05793,-0.1368 0.02717,-0.0638 0.108117,-0.17372 0.08095,-0.10988 0.138896,-0.17569 0.05795,-0.0658 0.123932,-0.11106 0.06599,-0.0452 0.156348,-0.10267 0.09036,-0.0574 0.168603,-0.0855 0.07824,-0.028 0.146074,-0.0608 m 0.457352,1.53395 q 0.1144,-5.9e-4 0.165104,-0.0261 0.05071,-0.0256 0.131809,-0.083 0.0811,-0.0575 0.123516,-0.11835 0.04241,-0.0609 0.0505,-0.1181 0.0081,-0.0572 0.01574,-0.22672 0.0077,-0.1695 -0.01596,-0.22958 -0.02362,-0.0601 -0.07683,-0.11835 -0.05322,-0.0583 -0.115222,-0.0853 -0.06201,-0.027 -0.169366,-0.0628 -0.107361,-0.0357 -0.200641,-0.0141 -0.09328,0.0217 -0.151983,0.0289 -0.0587,0.007 -0.157025,0.0747 -0.09832,0.0675 -0.1701,0.11803 -0.07178,0.0505 -0.09714,0.13745 -0.02536,0.0869 0.0033,0.19241 0.02866,0.10551 0.06717,0.21458 0.03851,0.10908 0.06954,0.14647 0.03103,0.0374 0.115925,0.074 0.0849,0.0367 0.191079,0.0665 0.106185,0.0299 0.220585,0.0293"
         id="path422017" /><path
         style="fill:#c2f2f2;fill-opacity:1"
         d="m 67.608566,142.33086 q 0.108556,-0.0598 0.204106,-0.0824 0.09555,-0.0225 0.219505,-0.0496 0.123954,-0.0271 0.239371,-0.007 0.115418,0.02 0.176636,0.068 0.06122,0.048 0.140975,0.10139 l 0.07976,0.0534 -0.02481,-0.0744 -0.02481,-0.0744 0.03721,0.0488 q 0.03721,0.0488 0.05788,0.0744 l 0.02066,0.0256 -0.02067,-0.0124 -0.02067,-0.0124 -0.138389,0.0271 q -0.13839,0.0271 -0.272769,0.0665 -0.134379,0.0395 -0.236053,0.0644 -0.101674,0.0248 -0.19881,0.0545 -0.09714,0.0297 -0.1728,0.0692 -0.07566,0.0395 -0.184677,0.108 -0.109015,0.0685 -0.162053,0.119 -0.05304,0.0505 -0.107827,0.12514 -0.05479,0.0746 -0.09055,0.13404 -0.03576,0.0594 -0.07543,0.17128 -0.03967,0.11187 -0.06442,0.19668 -0.02475,0.0848 -0.03711,0.15674 -0.01235,0.0719 -0.01682,0.19337 -0.0045,0.12142 -0.0027,0.20629 0.0018,0.0849 0.0095,0.12958 0.0077,0.0447 0.04449,0.19288 0.03676,0.14818 0.06544,0.26979 l 0.02867,0.12162 -0.09989,-0.0609 q -0.09989,-0.0609 -0.188636,-0.12909 -0.08875,-0.0682 -0.0948,-0.0993 -0.0061,-0.0311 -0.02776,-0.1376 -0.02171,-0.10648 -0.04369,-0.27049 -0.02199,-0.16401 -0.02119,-0.24092 7.94e-4,-0.0769 0.02883,-0.23247 0.02804,-0.15555 0.05148,-0.22771 0.02345,-0.0721 0.04416,-0.16172 0.02072,-0.0896 0.06248,-0.179 0.04176,-0.0894 0.102667,-0.19171 0.0609,-0.10227 0.09714,-0.14636 0.03624,-0.0441 0.12054,-0.10744 0.0843,-0.0633 0.162605,-0.10855 0.0783,-0.0452 0.151475,-0.0785 0.07318,-0.0333 0.181731,-0.0932"
         id="path422016" /><path
         style="fill:#1a1a1a;fill-opacity:1"
         d="m 67.319598,142.0565 c 0.05301,-0.0312 0.112696,-0.0549 0.179069,-0.0712 0.06637,-0.0163 0.149971,-0.0304 0.250793,-0.0423 0.100824,-0.0119 0.192022,-0.0208 0.273593,-0.0265 0.08157,-0.006 0.162905,-0.0111 0.243999,-0.0154 0.08109,-0.005 0.171845,-0.007 0.27225,-0.007 0.100405,1.2e-4 0.183504,0.002 0.249297,0.006 0.06579,0.004 0.113322,0.0325 0.142585,0.0854 0.02926,0.053 0.07823,0.089 0.146901,0.10815 0.06867,0.0191 0.129502,0.0477 0.182495,0.0858 0.05299,0.0381 0.106453,0.0794 0.16038,0.12389 0.05393,0.0445 0.08928,0.0789 0.106045,0.10299 0.01677,0.0241 0.04554,0.0739 0.08631,0.14923 0.04077,0.0753 0.07915,0.14421 0.11515,0.20656 0.036,0.0623 0.07544,0.12369 0.118332,0.18408 0.04289,0.0603 0.06797,0.11284 0.07525,0.15753 0.0073,0.0447 0.022,0.10775 0.04415,0.18926 0.02215,0.0815 0.04942,0.15455 0.0818,0.21908 0.03238,0.0645 0.07834,0.10422 0.137866,0.11906 0.05953,0.0149 0.132697,0.0287 0.21951,0.0416 0.08681,0.0129 0.172289,0.0271 0.256436,0.0427 0.08415,0.0156 0.179599,0.0365 0.286357,0.0626 0.106759,0.0261 0.1881,0.0466 0.244023,0.0615 0.05593,0.0149 0.10042,0.0267 0.133481,0.0356 0.03307,0.009 0.07971,0.0202 0.139931,0.0339 0.06022,0.0137 0.138091,0.0307 0.233612,0.0512 0.09552,0.0205 0.193796,0.0442 0.294832,0.0711 0.101036,0.0269 0.169782,0.0533 0.206237,0.0791 0.03645,0.0258 0.08208,0.0547 0.136866,0.0866 0.05479,0.0319 0.125571,0.0492 0.212354,0.0519 0.08678,0.003 0.171318,0.004 0.253615,0.005 0.0823,5.3e-4 0.163491,0.003 0.243582,0.007 0.08009,0.004 0.161413,0.0145 0.243965,0.0314 0.08255,0.0169 0.142746,0.0554 0.180581,0.11534 0.03783,0.0599 0.09983,0.0952 0.185979,0.10574 0.08615,0.0106 0.152557,0.0215 0.199214,0.0326 0.04666,0.0112 0.100959,0.0239 0.162896,0.038 0.06194,0.0141 0.09991,0.0574 0.113917,0.12996 0.01401,0.0725 0.02304,0.14788 0.0271,0.22613 0.0041,0.0782 -0.0025,0.14664 -0.01955,0.20517 -0.0171,0.0585 -0.04755,0.0909 -0.09135,0.0971 -0.0438,0.006 -0.111288,0.0142 -0.202463,0.0247 -0.09117,0.0103 -0.186111,0.0201 -0.284807,0.0294 -0.0987,0.009 -0.190867,0.0153 -0.276513,0.0182 -0.08564,0.003 -0.17096,0.005 -0.255943,0.007 -0.08498,0.002 -0.171573,0.003 -0.259768,0.003 h -0.264583 -0.264583 -0.264584 -0.264583 -0.264583 -0.264584 -0.264583 -0.264583 c -0.08819,0 -0.166435,0.003 -0.234722,0.008 -0.06829,0.005 -0.155496,0.015 -0.261627,0.0291 -0.106131,0.0141 -0.190632,0.0349 -0.253503,0.0624 -0.06287,0.0275 -0.111122,0.0477 -0.144745,0.0605 -0.03363,0.0128 -0.09002,0.0286 -0.169176,0.0473 -0.07916,0.0187 -0.146134,0.0407 -0.200931,0.0662 -0.0548,0.0254 -0.09439,0.0683 -0.118756,0.12857 -0.02437,0.0603 -0.0118,0.11326 0.03771,0.15898 0.04951,0.0457 0.0965,0.0884 0.140974,0.12826 0.04447,0.0398 0.08614,0.0847 0.12502,0.13485 0.03888,0.0501 0.06455,0.11111 0.07702,0.18313 0.01247,0.072 0.02017,0.13514 0.02311,0.18945 0.0029,0.0543 0.0087,0.12838 0.01721,0.22215 0.0085,0.0938 0.01476,0.18893 0.01868,0.2854 0.0039,0.0965 0.006,0.19278 0.0063,0.28889 2.5e-4,0.0961 0.0012,0.18821 0.0028,0.27628 0.0017,0.0881 0.0035,0.17282 0.0055,0.25426 0.0021,0.0814 0.0031,0.16625 0.0031,0.25444 0,0.0882 -1.44e-4,0.17162 -4.32e-4,0.25029 -2.88e-4,0.0787 -4.71e-4,0.16447 -5.48e-4,0.2574 -7.7e-5,0.0929 -0.0019,0.1754 -0.0055,0.24741 -0.0036,0.072 -0.02884,0.13312 -0.07571,0.18335 -0.04688,0.0502 -0.08867,0.0926 -0.125369,0.12733 -0.0367,0.0347 -0.07961,0.0782 -0.128717,0.13064 -0.04911,0.0525 -0.09714,0.11897 -0.144096,0.1995 -0.04695,0.0806 -0.08438,0.1468 -0.112273,0.19872 -0.02789,0.0519 -0.06271,0.0993 -0.104437,0.1421 -0.04173,0.0428 -0.07783,0.08 -0.108321,0.11156 -0.03049,0.0315 -0.06649,0.0722 -0.108018,0.12208 -0.04153,0.0499 -0.09147,0.10125 -0.14984,0.15415 -0.05837,0.0529 -0.109122,0.0925 -0.152265,0.11874 -0.04315,0.0263 -0.08768,0.0574 -0.133598,0.0933 -0.04592,0.0359 -0.09774,0.0827 -0.15545,0.1403 -0.05771,0.0575 -0.0999,0.10325 -0.126576,0.13715 -0.02667,0.0339 -0.05855,0.0749 -0.09564,0.12318 -0.03709,0.0483 -0.07662,0.0967 -0.1186,0.14536 -0.04198,0.0487 -0.100277,0.0868 -0.174891,0.11434 -0.07462,0.0275 -0.135136,0.0543 -0.181563,0.0804 -0.04643,0.0261 -0.0922,0.0547 -0.137306,0.086 -0.04511,0.0313 -0.09389,0.0728 -0.14634,0.12457 -0.05245,0.0517 -0.0987,0.10479 -0.138757,0.15917 -0.04005,0.0543 -0.07552,0.10237 -0.106398,0.14412 -0.03087,0.0417 -0.0544,0.10481 -0.07059,0.18922 -0.01619,0.0844 -0.02888,0.16208 -0.03807,0.233 -0.0092,0.0709 -0.01861,0.13819 -0.02827,0.20182 -0.0097,0.0636 -0.01637,0.14852 -0.02014,0.25476 -0.0037,0.10621 -0.007,0.20617 -0.0099,0.29988 -0.0029,0.0937 -0.0038,2.30187 -0.0028,2.38767 10e-4,0.0858 0.0057,0.17481 0.01425,0.26702 0.0085,0.0922 0.0247,0.16307 0.04857,0.21257 0.02387,0.0495 0.06808,0.0844 0.132627,0.1046 0.06455,0.0202 0.125104,0.0371 0.181652,0.0508 0.05655,0.0137 0.08304,0.0475 0.07949,0.10157 -0.0035,0.0541 -0.03772,0.087 -0.10256,0.0988 -0.06482,0.0118 -0.143036,0.0217 -0.234647,0.0298 -0.09161,0.008 -0.1637,0.004 -0.216267,-0.013 -0.05257,-0.0167 -0.08394,-0.0552 -0.09411,-0.1153 -0.01017,-0.0601 -0.02025,-0.14563 -0.03023,-0.2565 -0.01,-0.11085 -0.01707,-0.20584 -0.02127,-0.28499 -0.0042,-0.0791 -0.0068,-2.27676 -0.0077,-2.35603 -9.33e-4,-0.0793 -0.0048,-0.1604 -0.01166,-0.24338 -0.0068,-0.083 -0.01066,-0.16839 -0.0115,-0.25622 -8.67e-4,-0.0878 -0.0053,-0.17509 -0.01325,-0.26179 -0.008,-0.0867 -0.01544,-0.17842 -0.02235,-0.27518 -0.0069,-0.0968 -0.02815,-0.15967 -0.06373,-0.1887 -0.03558,-0.0291 -0.07446,-0.0599 -0.116646,-0.0926 -0.04218,-0.0327 -0.102007,-0.0497 -0.179481,-0.0508 -0.07747,-0.001 -0.116939,0.0359 -0.118401,0.11176 -0.0015,0.0756 -0.0041,0.14966 -0.008,0.22204 -0.0039,0.0724 -0.0063,0.15773 -0.0072,0.25606 -9.33e-4,0.0983 -0.0014,0.19158 -0.0014,0.27977 v 0.26458 0.26458 2.383 c 0,0.0882 0.001,0.17488 0.0031,0.26007 0.0021,0.0852 0.0051,0.16549 0.009,0.2409 0.0039,0.0754 -0.03881,0.11231 -0.128227,0.11072 -0.08941,-0.001 -0.168186,-0.006 -0.236327,-0.013 -0.06814,-0.007 -0.14586,-0.006 -0.233158,0.003 -0.0873,0.009 -0.140145,-0.0259 -0.158544,-0.10485 -0.0184,-0.0789 0.0136,-0.11767 0.09601,-0.11626 0.0824,0.001 0.140939,-0.0128 0.175607,-0.0424 0.03467,-0.0297 0.06477,-0.0749 0.09031,-0.13576 0.02554,-0.0609 0.04274,-0.12089 0.05161,-0.18007 0.0089,-0.0592 0.01581,-0.13822 0.02084,-0.23705 0.005,-0.0988 0.009,-2.31503 0.01185,-2.41178 0.0029,-0.0968 0.0014,-0.18803 -0.0044,-0.27382 -0.0058,-0.0858 -0.0123,-0.1765 -0.01951,-0.27215 -0.0072,-0.0957 -0.01521,-0.17651 -0.024,-0.24258 -0.0088,-0.0661 -0.05044,-0.10188 -0.124956,-0.10744 -0.07452,-0.005 -0.134216,0.006 -0.179088,0.0332 -0.04487,0.0277 -0.09387,0.0587 -0.146982,0.0932 -0.05311,0.0344 -0.09886,0.0736 -0.137225,0.11768 -0.03837,0.044 -0.08106,0.0884 -0.128085,0.13307 -0.04702,0.0447 -0.0997,0.0755 -0.158029,0.0926 -0.05833,0.0171 -0.115052,0.0378 -0.170157,0.0622 -0.05511,0.0244 -0.116124,0.0497 -0.183053,0.0758 -0.06693,0.0262 -0.13658,0.0479 -0.208954,0.0651 -0.07237,0.0172 -0.14397,0.0329 -0.21479,0.0471 -0.07082,0.0142 -0.141373,0.0315 -0.211657,0.052 -0.07028,0.0205 -0.131379,0.0559 -0.183284,0.10611 -0.05191,0.0502 -0.112039,0.0884 -0.180398,0.11459 -0.06836,0.0261 -0.127159,0.0488 -0.176394,0.0679 -0.04923,0.0191 -0.104524,0.0449 -0.165873,0.0772 -0.06135,0.0324 -0.104175,0.0495 -0.128486,0.0514 -0.02431,0.002 -0.103137,0.0102 -0.236471,0.0246 -0.133336,0.0145 -0.239393,0.0229 -0.318172,0.0254 -0.07878,0.003 -0.152207,-3.3e-4 -0.220284,-0.009 -0.06808,-0.008 -0.140668,-0.0118 -0.217773,-0.0109 -0.0771,6.7e-4 -0.119469,-0.0315 -0.127092,-0.0964 -0.0076,-0.0652 -0.01802,-0.14868 -0.0312,-0.25044 -0.01317,-0.10175 -0.02212,-0.19824 -0.02683,-0.28946 -0.0047,-0.0912 -0.0073,-0.17892 -0.0076,-0.2631 -3.25e-4,-0.0842 0.0029,-0.16665 0.0097,-0.24742 0.0068,-0.0808 0.01162,-0.16264 0.01447,-0.24562 0.0029,-0.083 0.03236,-0.13641 0.08848,-0.16026 0.05613,-0.0239 0.08875,-0.0701 0.09786,-0.13864 0.0091,-0.0686 0.01871,-0.15188 0.0288,-0.24991 0.01009,-0.098 0.01604,-0.18716 0.01784,-0.26739 0.0018,-0.0802 0.0026,-0.16114 0.0025,-0.24272 -1.27e-4,-0.0816 0.03183,-0.13628 0.09588,-0.16409 0.06405,-0.0278 0.105312,-0.0815 0.123797,-0.16114 0.01849,-0.0796 0.04152,-0.15798 0.06911,-0.23509 0.02759,-0.0771 0.0578,-0.14562 0.09064,-0.20553 0.03285,-0.0599 0.06936,-0.11277 0.109532,-0.1585 0.04018,-0.0457 0.05885,-0.10797 0.056,-0.18671 -0.0029,-0.0787 -0.0048,-0.15403 -0.0058,-0.22597 -0.0011,-0.0719 0.0055,-0.14457 0.01956,-0.21788 0.01408,-0.0733 0.04772,-0.12932 0.10093,-0.16803 0.05321,-0.0387 0.0918,-0.0886 0.115768,-0.14955 0.02397,-0.061 0.04657,-0.11606 0.06778,-0.16519 0.02121,-0.0491 0.0482,-0.11407 0.08097,-0.19482 0.03277,-0.0807 0.05286,-0.13509 0.06029,-0.163 0.0074,-0.0279 0.02874,-0.0793 0.06391,-0.1542 0.03517,-0.0749 0.07115,-0.14778 0.107935,-0.21867 0.03678,-0.0709 0.06422,-0.12628 0.08231,-0.16619 0.01809,-0.0399 0.0376,-0.10269 0.05852,-0.18828 0.02092,-0.0856 0.05791,-0.14154 0.110966,-0.16779 0.05305,-0.0263 0.103076,-0.0763 0.150069,-0.15011 0.04699,-0.0738 0.10004,-0.13492 0.15916,-0.1833 0.05912,-0.0484 0.104228,-0.0897 0.135324,-0.12394 0.0311,-0.0343 0.06139,-0.0643 0.09086,-0.0902 0.02948,-0.0259 0.06992,-0.0667 0.121325,-0.1222 0.05141,-0.0555 0.0951,-0.10371 0.131075,-0.14453 0.03598,-0.0408 0.08509,-0.0857 0.147342,-0.13464 0.06225,-0.049 0.12241,-0.10009 0.180469,-0.15328 0.05806,-0.0532 0.106511,-0.10139 0.145354,-0.14458 0.03884,-0.0431 0.069,-0.0748 0.09049,-0.095 0.02149,-0.0201 0.07044,-0.0648 0.146864,-0.13387 0.07642,-0.0691 0.131055,-0.11984 0.163896,-0.15219 0.03284,-0.0323 0.06535,-0.0669 0.09753,-0.10355 0.03218,-0.0367 0.07508,-0.0818 0.12871,-0.13542 0.05363,-0.0536 0.111144,-0.11182 0.172553,-0.17465 0.06141,-0.0628 0.105176,-0.10654 0.131308,-0.13123 0.02613,-0.0247 0.05646,-0.0502 0.09098,-0.0766 0.03452,-0.0264 0.08925,-0.0464 0.164199,-0.0599 0.07494,-0.0135 0.16333,-0.0378 0.265156,-0.0729 0.101827,-0.0351 0.186905,-0.0665 0.255235,-0.0942 0.06833,-0.0277 0.0919,-0.0637 0.0707,-0.10799 -0.0212,-0.0442 -0.05597,-0.0772 -0.104322,-0.099 -0.04835,-0.0218 -0.07763,-0.0863 -0.08783,-0.19354 -0.0102,-0.10724 -0.01508,-0.19268 -0.01465,-0.25632 4.34e-4,-0.0637 2.84e-4,-0.13278 -4.49e-4,-0.20733 -7.33e-4,-0.0746 -8.26e-4,-0.15851 -2.77e-4,-0.25178 5.48e-4,-0.0933 0.0044,-0.18682 0.01149,-0.28063 0.0071,-0.0938 0.01253,-0.18151 0.01625,-0.26308 0.0037,-0.0816 0.01363,-0.15316 0.0297,-0.21479 0.01608,-0.0616 0.04215,-0.12371 0.0782,-0.18634 0.03605,-0.0626 0.06446,-0.12622 0.08522,-0.19085 0.02076,-0.0647 0.05015,-0.1245 0.08818,-0.17949 0.03803,-0.055 0.07476,-0.0959 0.110212,-0.1226 0.03545,-0.0267 0.07461,-0.0587 0.117477,-0.096 0.04287,-0.0373 0.09766,-0.0752 0.164386,-0.11368 0.06672,-0.0385 0.12435,-0.069 0.172887,-0.0915 0.04854,-0.0225 0.09931,-0.0493 0.152317,-0.0805 m -4.916745,10.872 c 0.06764,0.0107 0.139831,0.009 0.216564,-0.006 0.07673,-0.0149 0.153269,-0.037 0.229606,-0.0664 0.07634,-0.0295 0.146498,-0.058 0.210482,-0.0856 0.06399,-0.0276 0.122001,-0.0531 0.174044,-0.0765 0.05205,-0.0234 0.104046,-0.0458 0.155997,-0.0673 0.05195,-0.0215 0.107275,-0.0431 0.165966,-0.0648 0.05869,-0.0217 0.129953,-0.0494 0.213779,-0.0831 0.08383,-0.0337 0.148846,-0.0593 0.195053,-0.0768 0.04621,-0.0175 0.10301,-0.0407 0.170411,-0.0694 0.0674,-0.0288 0.139709,-0.063 0.216927,-0.10253 0.07722,-0.0395 0.138658,-0.0744 0.184319,-0.10451 0.04566,-0.0301 0.100266,-0.0645 0.163818,-0.10307 0.06355,-0.0386 0.112725,-0.0681 0.147515,-0.0886 0.03479,-0.0205 0.0738,-0.0436 0.117032,-0.0695 0.04323,-0.0259 0.09979,-0.0593 0.169676,-0.10031 0.06989,-0.041 0.113538,-0.0727 0.130953,-0.0952 0.01741,-0.0225 0.05057,-0.0788 0.09947,-0.16891 0.0489,-0.0902 0.08729,-0.16455 0.115162,-0.22317 0.02788,-0.0586 0.0632,-0.12927 0.105969,-0.21201 0.04277,-0.0827 0.0792,-0.13943 0.109303,-0.17012 0.0301,-0.0307 0.0655,-0.073 0.106194,-0.12709 0.04069,-0.0541 0.07737,-0.10282 0.110019,-0.14627 0.03265,-0.0435 0.06753,-0.0837 0.104624,-0.12077 0.0371,-0.0371 0.08067,-0.0821 0.130717,-0.13494 0.05005,-0.0529 0.09712,-0.10144 0.141215,-0.14551 0.0441,-0.0441 0.0882,-0.0882 0.132292,-0.13229 0.0441,-0.0441 0.0882,-0.0882 0.132291,-0.1323 0.0441,-0.0441 0.0882,-0.0882 0.132292,-0.13229 0.0441,-0.0441 0.09044,-0.096 0.139016,-0.15591 0.04858,-0.0599 0.0845,-0.10674 0.107771,-0.14062 0.02327,-0.0339 0.05353,-0.08 0.09078,-0.13818 0.03725,-0.0582 0.07954,-0.12617 0.126859,-0.20391 0.04731,-0.0777 0.08547,-0.13625 0.114481,-0.17558 0.02901,-0.0393 0.06394,-0.0884 0.104803,-0.14709 0.04087,-0.0587 0.07172,-0.10178 0.09257,-0.12915 0.02085,-0.0274 0.0514,-0.0719 0.09167,-0.13346 0.04026,-0.0616 0.07989,-0.11958 0.118881,-0.17395 0.03899,-0.0544 0.07586,-0.10815 0.110613,-0.16126 0.03475,-0.0531 0.07214,-0.10166 0.112171,-0.14559 0.04003,-0.0439 0.08353,-0.0942 0.130498,-0.15076 0.04697,-0.0566 0.08233,-0.10133 0.106102,-0.13419 0.02377,-0.0329 0.0465,-0.073 0.0682,-0.12039 0.0217,-0.0474 0.04574,-0.10287 0.07211,-0.16642 0.02637,-0.0635 0.04131,-0.1464 0.04482,-0.24859 0.0035,-0.10216 0.0054,-0.18913 0.0057,-0.2609 3.1e-4,-0.0718 4.3e-5,-0.14725 -8.01e-4,-0.22644 -8.67e-4,-0.0792 -0.01472,-0.14634 -0.04157,-0.20148 -0.02687,-0.0551 -0.06376,-0.11111 -0.11068,-0.16792 -0.04692,-0.0568 -0.09046,-0.10495 -0.13061,-0.14444 -0.04015,-0.0395 -0.07834,-0.0785 -0.114568,-0.11717 -0.03623,-0.0386 -0.09007,-0.0843 -0.161532,-0.13705 -0.07146,-0.0527 -0.12685,-0.0942 -0.166168,-0.12452 -0.03932,-0.0303 -0.07463,-0.0597 -0.105925,-0.0882 -0.0313,-0.0285 -0.07355,-0.0647 -0.126762,-0.10863 -0.05321,-0.0439 -0.105127,-0.0845 -0.155742,-0.12199 -0.05062,-0.0375 -0.108468,-0.0774 -0.173545,-0.11995 -0.06508,-0.0425 -0.122764,-0.0661 -0.173053,-0.0706 -0.05029,-0.005 -0.110772,-0.007 -0.181456,-0.008 -0.07068,-6.7e-4 -0.154636,6.7e-4 -0.251864,0.004 -0.09723,0.003 -0.172775,0.009 -0.226638,0.0173 -0.05387,0.008 -0.107595,0.0317 -0.161184,0.0699 -0.05359,0.0382 -0.101927,0.0787 -0.145001,0.12148 -0.04307,0.0428 -0.08511,0.0817 -0.126122,0.11668 -0.04101,0.035 -0.09106,0.0807 -0.150173,0.13706 -0.05911,0.0564 -0.105627,0.10146 -0.139562,0.13518 -0.03393,0.0337 -0.07295,0.0727 -0.117045,0.11675 -0.0441,0.0441 -0.0882,0.0882 -0.132291,0.13229 -0.0441,0.0441 -0.0882,0.0882 -0.132292,0.13229 -0.0441,0.0441 -0.0882,0.0882 -0.132292,0.13229 -0.0441,0.0441 -0.0882,0.0882 -0.132291,0.13229 -0.0441,0.0441 -0.0882,0.0882 -0.132292,0.1323 -0.0441,0.0441 -0.0882,0.0882 -0.132292,0.13229 -0.0441,0.0441 -0.0882,0.0882 -0.132291,0.13229 -0.0441,0.0441 -0.0882,0.0882 -0.132292,0.13229 -0.0441,0.0441 -0.0882,0.0882 -0.132292,0.13229 -0.04409,0.0441 -0.08875,0.09 -0.133966,0.13777 -0.04521,0.0477 -0.08676,0.0918 -0.124651,0.13209 -0.03789,0.0403 -0.07066,0.0825 -0.09833,0.12663 l -0.107873,0.17208 c -0.04425,0.0706 -0.0792,0.12852 -0.104836,0.17375 -0.02564,0.0453 -0.05392,0.0993 -0.08485,0.1622 -0.03093,0.0629 -0.06221,0.12599 -0.09385,0.18937 -0.03165,0.0633 -0.0607,0.12026 -0.08715,0.17078 -0.02645,0.0505 -0.05595,0.11369 -0.0885,0.18968 -0.03255,0.076 -0.06186,0.13865 -0.08794,0.18808 -0.02608,0.0494 -0.05255,0.11013 -0.07942,0.1822 -0.02687,0.0721 -0.05229,0.13851 -0.07626,0.19939 -0.02397,0.0609 -0.05039,0.12902 -0.07926,0.20446 -0.02887,0.0754 -0.05126,0.13504 -0.06719,0.17887 -0.01592,0.0438 -0.03893,0.10283 -0.06904,0.1771 -0.03011,0.0742 -0.05493,0.13652 -0.07447,0.18684 -0.01955,0.0503 -0.04074,0.11384 -0.06358,0.19052 -0.02284,0.0767 -0.04991,0.15692 -0.08122,0.24065 -0.03131,0.0837 -0.06078,0.16142 -0.08843,0.23307 -0.02765,0.0716 -0.05285,0.1446 -0.07561,0.21885 -0.02276,0.0742 -0.03622,0.12364 -0.04039,0.14816 -0.0041,0.0245 -0.01272,0.0804 -0.02575,0.16764 -0.01301,0.0872 -0.02389,0.17837 -0.03264,0.27338 -0.0088,0.095 -0.01852,0.17918 -0.02931,0.25247 -0.01079,0.0733 -0.02478,0.14239 -0.04198,0.20728 -0.0172,0.0649 -0.03013,0.12278 -0.0388,0.17375 -0.0087,0.0509 -0.01773,0.11661 -0.0272,0.19702 -0.0095,0.0804 -0.01277,0.15158 -0.0099,0.21353 0.0029,0.0619 0.02066,0.1234 0.05337,0.1844 0.03273,0.061 0.05582,0.0981 0.06927,0.11122 0.01345,0.0132 0.05399,0.0252 0.121633,0.0359 m 3.973183,-1.56149 c 0.06579,-0.002 0.137583,-0.0139 0.21537,-0.0356 0.07779,-0.0216 0.149598,-0.0547 0.215434,-0.0994 0.06583,-0.0447 0.125374,-0.0873 0.178623,-0.12783 0.05325,-0.0406 0.09867,-0.0724 0.136274,-0.0955 0.0376,-0.0231 0.09094,-0.0549 0.160009,-0.0956 0.06907,-0.0407 0.125061,-0.0745 0.16797,-0.10164 0.04291,-0.0271 0.08428,-0.0552 0.124125,-0.0842 0.03984,-0.0291 0.09371,-0.0716 0.161605,-0.12745 0.0679,-0.0559 0.119181,-0.10019 0.153855,-0.13278 0.03467,-0.0326 0.07406,-0.071 0.118156,-0.11504 0.0441,-0.0441 0.0882,-0.0882 0.132292,-0.13229 0.0441,-0.0441 0.0882,-0.0882 0.132292,-0.13229 0.0441,-0.0441 0.0882,-0.0882 0.132291,-0.1323 0.0441,-0.0441 0.08426,-0.0877 0.120469,-0.13104 0.03621,-0.0433 0.07793,-0.0994 0.125134,-0.16838 0.04721,-0.069 0.07851,-0.11337 0.09391,-0.13314 0.0154,-0.0198 0.04483,-0.0606 0.0883,-0.1223 0.04347,-0.0617 0.09302,-0.13204 0.148666,-0.21093 0.05565,-0.0789 0.09679,-0.13489 0.123418,-0.16811 0.02663,-0.0332 0.06088,-0.0775 0.102749,-0.1329 0.04187,-0.0554 0.06704,-0.0974 0.07553,-0.12585 0.0085,-0.0285 0.01995,-0.0757 0.03438,-0.14143 0.01443,-0.0657 0.02744,-0.14487 0.03905,-0.23742 0.0116,-0.0925 0.02452,-0.18665 0.03875,-0.28244 0.01423,-0.0958 0.02617,-0.18882 0.0358,-0.27907 0.0096,-0.0902 0.01533,-0.18115 0.0171,-0.2727 0.0018,-0.0915 0.0021,-0.16507 9.98e-4,-0.22056 -0.0011,-0.0555 -0.0057,-0.13245 -0.01356,-0.23094 -0.0079,-0.0985 -0.0148,-0.18623 -0.02058,-0.26331 -0.0058,-0.0771 -0.0212,-0.15126 -0.04621,-0.22255 -0.02503,-0.0713 -0.04898,-0.13042 -0.07187,-0.17739 -0.02289,-0.047 -0.05288,-0.0997 -0.08995,-0.15819 -0.03707,-0.0585 -0.06916,-0.10898 -0.09627,-0.15154 -0.02711,-0.0425 -0.0456,-0.097 -0.05548,-0.16336 -0.0099,-0.0663 -0.01045,-0.13838 -0.0017,-0.21613 0.0087,-0.0777 0.02222,-0.14081 0.04045,-0.18924 0.01823,-0.0484 0.05091,-0.0955 0.09805,-0.14143 0.04714,-0.0459 0.08873,-0.0769 0.124756,-0.0932 0.03603,-0.0163 0.08551,-0.0378 0.148431,-0.0647 0.06292,-0.0269 0.123296,-0.05 0.181129,-0.0695 0.05783,-0.0195 0.12488,-0.0355 0.201139,-0.048 0.07626,-0.0126 0.173092,-0.0223 0.290489,-0.0291 0.117397,-0.007 0.208106,-0.0126 0.272127,-0.0175 0.06402,-0.005 0.143544,-0.01 0.238573,-0.0151 0.09503,-0.005 0.188286,-0.009 0.279773,-0.0111 0.09149,-0.002 0.17884,-0.004 0.262055,-0.005 0.08322,-6.7e-4 0.168921,-10e-4 0.257116,-10e-4 h 0.264583 0.264583 0.264584 0.264583 0.264583 c 0.08819,0 0.180183,-0.002 0.275966,-0.005 0.09578,-0.003 0.179503,-0.009 0.251159,-0.0164 0.07166,-0.007 0.162766,-0.0165 0.27333,-0.0272 0.110564,-0.0107 0.178614,-0.0175 0.20415,-0.0205 0.02553,-0.003 0.03324,-0.0212 0.02313,-0.0535 -0.01011,-0.0326 -0.02625,-0.0521 -0.0484,-0.0586 -0.02215,-0.007 -0.07925,-0.0224 -0.171278,-0.0473 -0.09203,-0.0251 -0.185894,-0.0542 -0.281579,-0.0875 -0.09569,-0.0333 -0.160914,-0.0567 -0.195685,-0.0703 -0.03477,-0.0136 -0.09162,-0.0324 -0.170545,-0.0563 -0.07893,-0.0239 -0.144722,-0.0418 -0.197388,-0.0537 -0.05267,-0.0119 -0.121173,-0.0298 -0.20552,-0.0538 -0.08435,-0.024 -0.156411,-0.0437 -0.216194,-0.059 -0.05978,-0.0154 -0.11742,-0.03 -0.172919,-0.0438 -0.05549,-0.0138 -0.114216,-0.0255 -0.176168,-0.0351 -0.06195,-0.01 -0.138481,-0.0258 -0.229602,-0.0486 -0.09112,-0.0227 -0.180049,-0.046 -0.26679,-0.0697 -0.08674,-0.0237 -0.15468,-0.0442 -0.203817,-0.0615 -0.04914,-0.0173 -0.116671,-0.0373 -0.202593,-0.0601 -0.08593,-0.0228 -0.152022,-0.0392 -0.198289,-0.0493 -0.04627,-0.0101 -0.123209,-0.0184 -0.230828,-0.0251 -0.107619,-0.007 -0.195346,-0.003 -0.263181,0.0113 -0.06784,0.0142 -0.133483,0.0279 -0.196944,0.0412 -0.06346,0.0133 -0.115493,0.023 -0.156098,0.0292 -0.04061,0.006 -0.09558,0.0157 -0.164909,0.0291 -0.06934,0.0132 -0.106629,-0.0191 -0.111878,-0.097 -0.0053,-0.0779 -0.01467,-0.16127 -0.02821,-0.25007 -0.01356,-0.0888 -0.03008,-0.18009 -0.04955,-0.2739 -0.01947,-0.0938 -0.0389,-0.16545 -0.05827,-0.21493 -0.01937,-0.0495 -0.0374,-0.0968 -0.05411,-0.14206 -0.0167,-0.0452 -0.0336,-0.0869 -0.0507,-0.12504 -0.0171,-0.0381 -0.04984,-0.10303 -0.09822,-0.19468 -0.04839,-0.0916 -0.07841,-0.14283 -0.09006,-0.15354 -0.01165,-0.0107 -0.04869,-0.0334 -0.111123,-0.0679 -0.06243,-0.0345 -0.124614,-0.0691 -0.186562,-0.10383 -0.06195,-0.0347 -0.116685,-0.0693 -0.164216,-0.10402 -0.04753,-0.0347 -0.105746,-0.0776 -0.174657,-0.1288 -0.06891,-0.0512 -0.13132,-0.0799 -0.187234,-0.086 -0.05591,-0.006 -0.135787,-0.008 -0.23962,-0.007 -0.103833,0.001 -0.185863,0.004 -0.246089,0.009 -0.06023,0.005 -0.123618,0.0157 -0.190175,0.0312 -0.06656,0.0158 -0.130379,0.0335 -0.191456,0.053 -0.06108,0.0196 -0.113681,0.0401 -0.157802,0.0616 -0.04412,0.0215 -0.108068,0.0532 -0.191845,0.0952 -0.08377,0.042 -0.143724,0.0846 -0.179851,0.12776 -0.03613,0.0432 -0.07304,0.0891 -0.110729,0.13757 -0.03769,0.0485 -0.0743,0.0993 -0.10982,0.15229 -0.03552,0.053 -0.066,0.10513 -0.09144,0.15638 -0.02544,0.0513 -0.0504,0.10554 -0.07489,0.16282 -0.02448,0.0573 -0.04248,0.11811 -0.05401,0.18254 -0.01153,0.0644 -0.02262,0.1392 -0.03329,0.2244 -0.01067,0.0852 -0.01457,0.16591 -0.01168,0.2421 0.0029,0.0762 0.0087,0.15812 0.01745,0.24577 0.0088,0.0877 0.02619,0.16136 0.0523,0.22111 0.02611,0.0597 0.05689,0.11402 0.09233,0.16286 0.03544,0.0488 0.07533,0.0971 0.119665,0.14497 0.04433,0.0478 0.08845,0.0873 0.132345,0.1186 l 0.06584,0.0469 0.03937,0.0601 c 0.02625,0.0401 0.06673,0.0942 0.121438,0.16243 0.05471,0.0682 0.104612,0.13023 0.149697,0.18596 0.04509,0.0557 0.0869,0.10105 0.125445,0.13595 0.03855,0.0349 0.079,0.0728 0.121347,0.11366 0.04235,0.0409 0.08652,0.0824 0.132496,0.12454 0.04598,0.0421 0.0934,0.0785 0.142271,0.1092 0.04887,0.0307 0.107514,0.0721 0.175921,0.12431 0.06841,0.0523 0.121066,0.0946 0.15797,0.12704 0.03691,0.0325 0.07562,0.0707 0.116145,0.11462 0.04053,0.0439 0.08047,0.0855 0.119817,0.1248 0.03935,0.0393 0.06375,0.0781 0.07318,0.11643 0.0094,0.0384 0.02118,0.10854 0.03524,0.21041 0.01406,0.10189 0.02653,0.20605 0.0374,0.31249 0.01087,0.10644 0.0164,0.19323 0.01657,0.26038 1.75e-4,0.0671 -0.0042,0.1393 -0.01307,0.21649 -0.0089,0.0772 -0.02288,0.16574 -0.04197,0.26567 -0.01909,0.0999 -0.03949,0.17694 -0.06118,0.23103 -0.02169,0.0541 -0.03977,0.0997 -0.05423,0.13686 -0.01447,0.0371 -0.04775,0.0876 -0.09984,0.15136 -0.05209,0.0637 -0.0978,0.11855 -0.137113,0.16444 -0.03931,0.0459 -0.07689,0.0942 -0.112719,0.14501 -0.03583,0.0508 -0.06438,0.0921 -0.08564,0.12386 -0.02126,0.0318 -0.05271,0.0788 -0.09436,0.14088 -0.04165,0.0621 -0.08437,0.125 -0.128159,0.18861 -0.04379,0.0636 -0.08149,0.11827 -0.113097,0.16401 -0.03161,0.0457 -0.06243,0.0942 -0.09247,0.14536 -0.03004,0.0511 -0.07003,0.1131 -0.119972,0.18591 -0.04994,0.0728 -0.08671,0.12739 -0.110302,0.16384 -0.02359,0.0365 -0.05004,0.0761 -0.07935,0.11875 -0.0293,0.0427 -0.06312,0.0891 -0.101457,0.1391 -0.03833,0.05 -0.07417,0.0976 -0.107502,0.14267 -0.03333,0.0451 -0.07116,0.0893 -0.113471,0.13282 -0.04231,0.0435 -0.10096,0.10508 -0.175939,0.18483 -0.07498,0.0798 -0.124638,0.13282 -0.148978,0.15913 -0.02434,0.0263 -0.05856,0.0615 -0.102656,0.10562 -0.0441,0.0441 -0.0882,0.0882 -0.132291,0.13229 -0.0441,0.0441 -0.0882,0.0882 -0.132292,0.13229 -0.0441,0.0441 -0.08384,0.0848 -0.119218,0.12219 -0.03538,0.0373 -0.07405,0.0874 -0.116007,0.15024 -0.04195,0.0628 -0.07286,0.11213 -0.09273,0.14798 -0.01986,0.0359 -0.03085,0.0668 -0.03296,0.0927 -0.0021,0.0259 0.01638,0.0498 0.05555,0.0716 0.03915,0.0218 0.09811,0.0333 0.176883,0.0345 0.07878,0.001 0.151061,0.001 0.216854,-0.001"
         id="path422015"
         sodipodi:nodetypes="cssccccccscssccccccssssscsssssccscccsscsccccsscccccccssssscccccccccccccssscccccccccccscccccsscccscccssccssccsssssscccsccccsssccssscccscccsccscscccccsscsscccscccccccccccccssscccccccccccccscscccccccccccccccccccssssccssssscccccsccsccccssssssccccsccscccccccccsccccccsscccccccccccccccccccccccsscccccccccssccccccccccscccccccccscccsccssccsscccccscssccccccsccscsccsccssscsccccccccccssscsccccsccccsscsccccssssscsscssssccsccccssccccsccscscccssccccscccccccccscscccccccscsssssccccccscsccccccccccscccccccc" /><path
         style="fill:#000000;fill-opacity:0"
         d="m 58.350166,140.16563 v -0.13229 h 0.132292 0.132292 0.132291 0.132292 0.132292 0.132291 0.132292 0.132292 0.132291 0.132292 0.132292 0.132291 0.132292 0.132292 0.132291 0.132292 0.132292 0.132291 0.132292 0.132292 0.132291 0.132292 0.132291 0.132292 0.132292 0.132291 0.132292 0.132292 0.132291 0.132292 0.132292 0.132291 0.132292 0.132292 0.132291 0.132292 0.132292 0.132291 0.132292 0.132292 0.132291 0.132292 0.132292 0.132291 0.132292 0.132292 0.132291 0.132292 0.132292 0.132291 0.132292 0.132292 0.132291 0.132292 0.132292 0.132291 0.132292 0.132292 0.132291 0.132292 0.132292 0.132291 0.132292 0.132292 0.132291 0.132292 0.132292 0.132291 0.132292 0.132292 0.132291 0.132292 0.132291 0.132292 0.132292 0.132291 0.132292 0.132292 0.132291 0.132292 0.132292 0.132291 0.132292 0.132292 0.132291 0.132292 0.132292 0.132291 0.132292 0.132292 0.132291 0.132292 0.132292 0.132291 0.132292 0.132292 0.132291 0.132292 0.132292 0.132291 0.132292 0.132292 0.132291 0.132292 0.132292 0.132291 0.132292 0.132292 0.132291 0.132292 0.132292 0.132291 0.132292 0.132292 0.132291 0.132292 0.132292 0.132291 0.132292 0.132291 0.132292 0.132292 0.132291 0.132292 0.132292 0.132291 0.132292 0.132292 v 0.13229 0.13229 0.1323 0.13229 0.13229 0.13229 0.13229 0.13229 0.1323 0.13229 0.13229 0.13229 0.13229 0.13229 0.1323 0.13229 0.13229 0.13229 0.13229 0.13229 0.1323 0.13229 0.13229 0.13229 0.13229 0.13229 0.1323 0.13229 0.13229 0.13229 0.13229 0.13229 0.1323 0.13229 0.13229 0.13229 0.13229 0.13229 0.1323 0.13229 0.13229 0.13229 0.13229 0.13229 0.1323 0.13229 0.13229 0.13229 0.13229 0.13229 0.1323 0.13229 0.13229 0.13229 0.13229 0.13229 0.1323 0.13229 0.13229 0.13229 0.13229 0.13229 0.1323 0.13229 0.13229 0.13229 0.13229 0.13229 0.13229 0.1323 0.13229 0.13229 0.13229 0.13229 0.13229 0.1323 0.13229 0.13229 0.13229 0.13229 0.13229 0.1323 0.13229 0.13229 0.13229 0.13229 0.13229 0.1323 0.13229 0.13229 0.13229 0.13229 0.13229 0.1323 0.13229 0.13229 0.13229 0.13229 0.13229 0.1323 0.13229 0.13229 0.13229 0.13229 0.13229 0.1323 0.13229 0.13229 0.13229 0.13229 0.13229 0.1323 0.13229 0.13229 0.13229 0.13229 0.13229 0.1323 0.13229 0.13229 0.13229 0.13229 0.13229 0.1323 0.13229 0.13229 0.13229 0.13229 H 75.151207 75.018915 74.886624 74.754332 74.62204 74.489749 74.357457 74.225165 74.092874 73.960582 73.828291 73.695999 73.563707 73.431416 73.299124 73.166832 73.034541 72.902249 72.769957 72.637666 72.505374 72.373082 72.240791 72.108499 71.976207 71.843916 71.711624 71.579332 71.447041 71.314749 71.182457 71.050166 70.917874 70.785582 70.653291 70.520999 70.388707 70.256416 70.124124 69.991832 69.859541 69.727249 69.594957 69.462666 69.330374 69.198082 69.065791 68.933499 68.801207 68.668916 68.536624 68.404332 68.272041 68.139749 68.007457 67.875166 67.742874 67.610583 67.478291 67.345999 67.213708 67.081416 66.949124 66.816833 66.684541 66.552249 66.419958 66.287666 66.155374 66.023083 65.890791 65.758499 65.626208 65.493916 65.361624 65.229333 65.097041 64.964749 64.832458 64.700166 64.567874 64.435583 64.303291 64.170999 64.038708 63.906416 63.774124 63.641833 63.509541 63.377249 63.244958 63.112666 62.980374 62.848083 62.715791 62.583499 62.451208 62.318916 62.186624 62.054333 61.922041 61.789749 61.657458 61.525166 61.392874 61.260583 61.128291 60.996 60.863708 60.731416 60.599125 60.466833 60.334541 60.20225 60.069958 59.937666 59.805375 59.673083 59.540791 59.4085 59.276208 59.143916 59.011625 58.879333 58.747041 58.61475 58.482458 58.350166 v -0.13229 -0.13229 -0.13229 -0.13229 -0.1323 -0.13229 -0.13229 -0.13229 -0.13229 -0.13229 -0.1323 -0.13229 -0.13229 -0.13229 -0.13229 -0.13229 -0.1323 -0.13229 -0.13229 -0.13229 -0.13229 -0.13229 -0.1323 -0.13229 -0.13229 -0.13229 -0.13229 -0.13229 -0.1323 -0.13229 -0.13229 -0.13229 -0.13229 -0.13229 -0.1323 -0.13229 -0.13229 -0.13229 -0.13229 -0.13229 -0.1323 -0.13229 -0.13229 -0.13229 -0.13229 -0.13229 -0.1323 -0.13229 -0.13229 -0.13229 -0.13229 -0.13229 -0.1323 -0.13229 -0.13229 -0.13229 -0.13229 -0.13229 -0.1323 -0.13229 -0.13229 -0.13229 -0.13229 -0.13229 -0.13229 -0.1323 -0.13229 -0.13229 -0.13229 -0.13229 -0.13229 -0.1323 -0.13229 -0.13229 -0.13229 -0.13229 -0.13229 -0.1323 -0.13229 -0.13229 -0.13229 -0.13229 -0.13229 -0.1323 -0.13229 -0.13229 -0.13229 -0.13229 -0.13229 -0.1323 -0.13229 -0.13229 -0.13229 -0.13229 -0.13229 -0.1323 -0.13229 -0.13229 -0.13229 -0.13229 -0.13229 -0.1323 -0.13229 -0.13229 -0.13229 -0.13229 -0.13229 -0.1323 -0.13229 -0.13229 -0.13229 -0.13229 -0.13229 -0.1323 -0.13229 -0.13229 -0.13229 -0.13229 -0.13229 -0.1323 -0.13229 -0.13229 -0.13229 -0.13229 -0.13229 -0.1323 -0.13229 m 8.803289,13.83314 q 0.0919,0.002 0.07302,-0.0504 -0.01888,-0.052 -0.05906,-0.0993 -0.04018,-0.0473 -0.136674,-0.12257 -0.0965,-0.0753 -0.119993,-0.1604 -0.0235,-0.0851 -0.03528,-0.197 -0.01178,-0.11189 -0.01698,-0.23871 -0.0052,-0.12682 -0.01497,-0.27979 -0.0098,-0.15296 -0.01441,-0.26041 -0.0046,-0.10745 -0.0012,-0.2416 0.0035,-0.13415 0.01493,-0.27493 0.01145,-0.14079 0.04132,-0.23832 0.02987,-0.0975 0.06749,-0.1682 0.03763,-0.0707 0.0784,-0.12545 0.04077,-0.0548 0.141916,-0.11244 0.101145,-0.0576 0.157482,-0.13898 0.05634,-0.0813 0.163555,-0.12728 0.107217,-0.0459 0.222991,-0.0975 0.115774,-0.0515 0.162912,-0.0725 0.04714,-0.0209 0.112259,-0.0899 0.06512,-0.069 0.12845,-0.14763 0.06333,-0.0786 0.131877,-0.1293 0.06855,-0.0507 0.143405,-0.12991 0.07486,-0.0792 0.120608,-0.14642 0.04575,-0.0672 0.119763,-0.13864 0.07401,-0.0714 0.138492,-0.13541 0.06448,-0.064 0.109312,-0.1009 0.04483,-0.0369 0.132392,-0.11387 0.08756,-0.0769 0.139639,-0.19511 0.05208,-0.11817 0.09561,-0.20062 0.04353,-0.0824 0.101919,-0.15214 0.05839,-0.0697 0.12457,-0.14191 0.06618,-0.0722 0.111026,-0.13302 0.04485,-0.0608 0.06698,-0.1949 0.02213,-0.1341 0.03441,-0.23034 0.01228,-0.0962 0.02267,-0.24673 0.01039,-0.1505 0.01266,-0.27296 0.0023,-0.12247 0.0023,-0.25476 0,-0.13229 0,-0.26458 0,-0.1323 0,-0.26459 0,-0.13229 0,-0.26458 0,-0.13229 0,-0.26458 0,-0.1323 -0.006,-0.27135 -0.006,-0.13905 -0.0321,-0.2462 -0.02606,-0.10715 -0.08523,-0.15646 -0.05917,-0.0493 -0.100866,-0.12341 -0.0417,-0.0741 -0.100977,-0.10982 -0.05928,-0.0357 -0.09025,-0.16019 -0.03098,-0.12445 0.08095,-0.1462 0.111924,-0.0217 0.204144,-0.0438 0.09222,-0.022 0.138854,-0.0786 0.04663,-0.0565 0.145867,-0.0697 0.09923,-0.0132 0.236648,-0.0186 0.137414,-0.005 0.270084,-0.0182 0.132669,-0.0127 0.264961,-0.0127 0.132291,0 0.264583,0 0.132292,0 0.264583,0 0.132292,0 0.264584,0 0.132291,0 0.264583,0 0.132292,0 0.264583,0 0.132292,0 0.264584,0 0.132291,0 0.264583,0 0.132292,0 0.264583,0 0.132292,0 0.264584,0 0.132291,0 0.252815,-0.002 0.120523,-0.002 0.263109,-0.007 0.142585,-0.005 0.29228,-0.01 0.149694,-0.004 0.253961,-0.0301 0.104267,-0.0257 0.102726,-0.13145 -0.0015,-0.10577 -0.0084,-0.21271 -0.0068,-0.10695 -0.03463,-0.21579 -0.02782,-0.10884 -0.117161,-0.11811 -0.08934,-0.009 -0.213881,-0.0253 -0.12454,-0.016 -0.221861,-0.0492 -0.09732,-0.0332 -0.198978,-0.10854 -0.101657,-0.0754 -0.190105,-0.0847 -0.08845,-0.009 -0.199499,-0.0331 -0.11105,-0.0237 -0.230552,-0.0425 -0.119502,-0.0187 -0.245888,-0.0461 -0.126385,-0.0274 -0.204631,-0.069 -0.07825,-0.0416 -0.120775,-0.0491 -0.04253,-0.007 -0.191322,-0.0326 -0.148793,-0.0251 -0.290089,-0.0574 -0.141295,-0.0323 -0.257321,-0.053 -0.116025,-0.0207 -0.159568,-0.0771 -0.04354,-0.0564 -0.127392,-0.0707 -0.08385,-0.0143 -0.241515,-0.0268 -0.157664,-0.0125 -0.310884,-0.0338 -0.15322,-0.0213 -0.28237,-0.0476 -0.12915,-0.0264 -0.207998,-0.0472 -0.07885,-0.0208 -0.102961,-0.13388 -0.02411,-0.11306 -0.06304,-0.22006 -0.03893,-0.107 -0.08629,-0.18146 -0.04737,-0.0745 -0.06691,-0.14622 -0.01954,-0.0718 -0.04402,-0.16225 -0.02448,-0.0905 -0.08086,-0.20786 -0.05638,-0.11737 -0.116354,-0.18856 -0.05997,-0.0712 -0.114433,-0.13225 -0.05446,-0.0611 -0.153815,-0.0987 -0.09936,-0.0376 -0.209693,-0.0807 -0.110338,-0.0431 -0.165355,-0.0856 -0.05502,-0.0425 -0.191979,-0.0616 -0.136962,-0.019 -0.261268,-0.033 -0.124305,-0.014 -0.242793,-0.018 -0.118488,-0.004 -0.244102,-0.007 -0.125614,-0.003 -0.248017,0.0139 -0.122402,0.0165 -0.236211,0.0291 -0.113808,0.0126 -0.146086,0.11524 -0.03228,0.10261 -0.171029,0.1047 -0.138753,0.002 -0.2302,0.0286 -0.09145,0.0265 -0.189311,0.08 -0.09786,0.0535 -0.128018,0.13663 -0.03015,0.0832 -0.07816,0.19978 -0.048,0.11661 -0.08313,0.18891 -0.03513,0.0723 -0.07087,0.1502 -0.03574,0.0779 -0.05353,0.16468 -0.01779,0.0868 -0.03655,0.22157 -0.01877,0.1348 -0.03038,0.27547 -0.01162,0.14068 -0.01162,0.27297 0,0.13229 0,0.26458 0,0.13229 0.0071,0.25574 0.0071,0.12345 0.02357,0.21739 0.01645,0.0939 0.07603,0.14891 0.05958,0.055 0.06942,0.14099 0.0098,0.086 -0.135487,0.1232 -0.145322,0.0372 -0.273539,0.0574 -0.128217,0.0202 -0.213719,0.0385 -0.0855,0.0183 -0.122883,0.0825 -0.03738,0.0642 -0.124273,0.11897 -0.08689,0.0547 -0.12535,0.16145 -0.03846,0.1067 -0.08925,0.14782 -0.05079,0.0411 -0.12036,0.0966 -0.06957,0.0555 -0.136578,0.13041 -0.06701,0.0749 -0.127558,0.11608 -0.06055,0.0411 -0.130998,0.10876 -0.07045,0.0676 -0.141667,0.15343 -0.07122,0.0858 -0.135454,0.14483 -0.06423,0.059 -0.146333,0.12 -0.0821,0.061 -0.15827,0.12393 -0.07617,0.0629 -0.147741,0.1237 -0.07157,0.0608 -0.120063,0.12503 -0.04849,0.0643 -0.109515,0.15153 -0.06103,0.0873 -0.110896,0.13583 -0.04987,0.0486 -0.133735,0.11585 -0.08386,0.0673 -0.157968,0.16403 -0.0741,0.0967 -0.109486,0.16135 -0.03538,0.0646 -0.104921,0.16227 -0.06954,0.0977 -0.111495,0.17455 -0.04196,0.0769 -0.06211,0.16296 -0.02015,0.0861 -0.06952,0.19322 -0.04937,0.10714 -0.09346,0.17306 -0.04409,0.0659 -0.07409,0.15964 -0.03,0.0937 -0.07993,0.19891 -0.04993,0.1052 -0.08623,0.20045 -0.03629,0.0952 -0.06294,0.18827 -0.02665,0.093 -0.06774,0.20309 -0.04109,0.11007 -0.09373,0.20599 -0.05264,0.0959 -0.08538,0.18442 -0.03274,0.0885 -0.03677,0.16353 -0.004,0.075 -0.0219,0.22792 -0.01788,0.1529 -0.04219,0.28357 -0.02431,0.13068 -0.120467,0.1893 -0.09616,0.0586 -0.100552,0.13074 -0.0044,0.0721 -0.01467,0.20878 -0.01027,0.13667 -0.02643,0.27898 -0.01616,0.14232 -0.05394,0.1982 -0.03778,0.0559 -0.06853,0.13721 -0.03075,0.0813 -0.06001,0.19035 -0.02927,0.10901 -0.03883,0.25269 -0.0096,0.14368 -0.0088,0.27476 7.44e-4,0.13109 0.0056,0.26074 0.0048,0.12965 0.02145,0.2907 0.0166,0.16105 0.02571,0.22216 0.0091,0.0611 0.08781,0.0713 0.0787,0.0102 0.233202,0.0136 0.154501,0.003 0.290003,0.0143 0.135501,0.0109 0.246401,0.0147 0.110899,0.004 0.21682,0.008 0.105921,0.004 0.172022,-0.0466 0.0661,-0.0506 0.14558,-0.10077 0.07948,-0.0502 0.188866,-0.11616 0.109387,-0.066 0.187371,-0.12004 0.07798,-0.0541 0.157096,-0.0595 0.07911,-0.005 0.189181,-0.0299 0.110069,-0.0244 0.23392,-0.0546 0.123851,-0.0302 0.173578,-0.082 0.04973,-0.0519 0.189866,-0.0989 0.140138,-0.047 0.180104,-0.0714 0.03997,-0.0244 0.137004,-0.10297 0.09704,-0.0785 0.151179,-0.12923 0.05414,-0.0507 0.127854,-0.13137 0.07371,-0.0807 0.171594,-0.0971 0.09788,-0.0164 0.202053,-0.006 0.104171,0.01 0.154158,0.11534 0.04999,0.10541 0.05409,0.24975 0.0041,0.14433 0.0049,0.27099 8.07e-4,0.12667 0.0019,0.24946 0.0011,0.12279 0.0011,0.25508 0,0.1323 -0.0072,0.26871 -0.0072,0.13641 -0.02785,0.21976 -0.02067,0.0833 -0.122125,0.10575 -0.101454,0.0224 -0.21407,0.0484 -0.112617,0.026 -0.111223,0.15238 0.0014,0.12637 0.143885,0.12952 0.142492,0.003 0.228619,-0.0113 0.08613,-0.0144 0.194999,-0.0334 0.108871,-0.0189 0.132927,-0.13736 0.02406,-0.1184 0.02921,-0.24278 0.0052,-0.12437 0.0076,-0.27088 0.0025,-0.14651 0.0047,-0.24195 0.0023,-0.0954 0.0036,-0.2396 0.0014,-0.14417 0.0014,-0.27646 0,-0.13229 0,-0.26459 0,-0.13229 0.006,-0.25306 0.006,-0.12078 0.01954,-0.21605 0.01351,-0.0953 0.108894,-0.11436 0.09538,-0.0191 0.219581,-0.0287 0.124202,-0.01 0.131969,0.0899 0.0078,0.0996 0.01842,0.24448 0.01065,0.14491 0.0132,0.27966 0.0025,0.13475 0.0028,0.26812 2.42e-4,0.13338 0.0045,0.26241 0.0043,0.12904 0.0043,0.26133 0,0.1323 0.0073,0.28093 0.0073,0.14863 0.02705,0.27349 0.01972,0.12487 0.05731,0.18415 0.03759,0.0593 0.09197,0.0861 0.05438,0.0268 0.190008,0.0345 0.135626,0.008 0.227527,0.009"
         id="path422014" /></g></g></svg>
